<mxfile host="app.diagrams.net" modified="2023-12-27T13:03:33.606Z" agent="Mozilla/5.0 (X11; Linux x86_64) AppleWebKit/537.36 (KHTML, like Gecko) Chrome/120.0.0.0 Safari/537.36" etag="0iuHwgaE2NH7-WAxJ6Ky" version="22.1.12" type="github">
  <diagram name="Page-1" id="ybi60e3nICIWRB5UvJB9">
    <mxGraphModel dx="1475" dy="817" grid="1" gridSize="10" guides="1" tooltips="1" connect="1" arrows="1" fold="1" page="1" pageScale="1" pageWidth="850" pageHeight="1100" math="0" shadow="0">
      <root>
        <mxCell id="0" />
        <mxCell id="1" parent="0" />
        <mxCell id="-FWnQ9TpVOZ-mp9vKElp-6" value="&lt;font style=&quot;font-size: 18px;&quot;&gt;Kernel memory&lt;/font&gt;" style="whiteSpace=wrap;html=1;aspect=fixed;" vertex="1" parent="1">
          <mxGeometry x="340" y="500" width="170" height="170" as="geometry" />
        </mxCell>
        <mxCell id="-FWnQ9TpVOZ-mp9vKElp-7" value="" style="endArrow=none;dashed=1;html=1;dashPattern=1 3;strokeWidth=2;rounded=0;exitX=1;exitY=0;exitDx=0;exitDy=0;" edge="1" parent="1" source="-FWnQ9TpVOZ-mp9vKElp-6">
          <mxGeometry width="50" height="50" relative="1" as="geometry">
            <mxPoint x="460" y="380" as="sourcePoint" />
            <mxPoint x="640" y="500" as="targetPoint" />
            <Array as="points" />
          </mxGeometry>
        </mxCell>
        <mxCell id="-FWnQ9TpVOZ-mp9vKElp-8" value="&lt;font style=&quot;font-size: 18px;&quot;&gt;End&lt;/font&gt;" style="edgeLabel;html=1;align=center;verticalAlign=middle;resizable=0;points=[];" vertex="1" connectable="0" parent="-FWnQ9TpVOZ-mp9vKElp-7">
          <mxGeometry x="0.0444" y="9" relative="1" as="geometry">
            <mxPoint as="offset" />
          </mxGeometry>
        </mxCell>
        <mxCell id="-FWnQ9TpVOZ-mp9vKElp-14" value="&lt;font style=&quot;font-size: 18px;&quot;&gt;4KB page&lt;/font&gt;" style="rounded=0;whiteSpace=wrap;html=1;" vertex="1" parent="1">
          <mxGeometry x="340" y="410" width="170" height="90" as="geometry" />
        </mxCell>
        <mxCell id="-FWnQ9TpVOZ-mp9vKElp-15" value="&lt;font style=&quot;font-size: 18px;&quot;&gt;4KB page&lt;/font&gt;" style="rounded=0;whiteSpace=wrap;html=1;" vertex="1" parent="1">
          <mxGeometry x="340" y="320" width="170" height="90" as="geometry" />
        </mxCell>
        <mxCell id="-FWnQ9TpVOZ-mp9vKElp-16" value="&lt;font style=&quot;font-size: 18px;&quot;&gt;4KB page&lt;/font&gt;" style="rounded=0;whiteSpace=wrap;html=1;" vertex="1" parent="1">
          <mxGeometry x="340" y="230" width="170" height="90" as="geometry" />
        </mxCell>
        <mxCell id="-FWnQ9TpVOZ-mp9vKElp-17" value="&lt;font style=&quot;font-size: 24px;&quot;&gt;...&lt;/font&gt;" style="rounded=0;whiteSpace=wrap;html=1;" vertex="1" parent="1">
          <mxGeometry x="340" y="170" width="170" height="60" as="geometry" />
        </mxCell>
        <mxCell id="-FWnQ9TpVOZ-mp9vKElp-31" style="edgeStyle=orthogonalEdgeStyle;rounded=0;orthogonalLoop=1;jettySize=auto;html=1;exitX=0;exitY=0.75;exitDx=0;exitDy=0;entryX=0;entryY=0.25;entryDx=0;entryDy=0;" edge="1" parent="1" source="-FWnQ9TpVOZ-mp9vKElp-18" target="-FWnQ9TpVOZ-mp9vKElp-17">
          <mxGeometry relative="1" as="geometry">
            <mxPoint x="330" y="190" as="targetPoint" />
            <Array as="points">
              <mxPoint x="270" y="148" />
              <mxPoint x="270" y="186" />
              <mxPoint x="340" y="186" />
            </Array>
          </mxGeometry>
        </mxCell>
        <mxCell id="-FWnQ9TpVOZ-mp9vKElp-18" value="&lt;font style=&quot;font-size: 18px;&quot;&gt;4KB page&lt;/font&gt;" style="rounded=0;whiteSpace=wrap;html=1;" vertex="1" parent="1">
          <mxGeometry x="340" y="80" width="170" height="90" as="geometry" />
        </mxCell>
        <mxCell id="-FWnQ9TpVOZ-mp9vKElp-19" value="" style="endArrow=none;dashed=1;html=1;dashPattern=1 3;strokeWidth=2;rounded=0;" edge="1" parent="1">
          <mxGeometry width="50" height="50" relative="1" as="geometry">
            <mxPoint x="210" y="78.67" as="sourcePoint" />
            <mxPoint x="640" y="78.67" as="targetPoint" />
            <Array as="points" />
          </mxGeometry>
        </mxCell>
        <mxCell id="-FWnQ9TpVOZ-mp9vKElp-20" value="&lt;font style=&quot;font-size: 18px;&quot;&gt;PHYTOP&lt;/font&gt;" style="edgeLabel;html=1;align=center;verticalAlign=middle;resizable=0;points=[];" vertex="1" connectable="0" parent="-FWnQ9TpVOZ-mp9vKElp-19">
          <mxGeometry x="0.0444" y="9" relative="1" as="geometry">
            <mxPoint x="-9" y="-11" as="offset" />
          </mxGeometry>
        </mxCell>
        <mxCell id="-FWnQ9TpVOZ-mp9vKElp-23" value="" style="endArrow=none;dashed=1;html=1;dashPattern=1 3;strokeWidth=2;rounded=0;exitX=1;exitY=0;exitDx=0;exitDy=0;" edge="1" parent="1">
          <mxGeometry width="50" height="50" relative="1" as="geometry">
            <mxPoint x="200" y="500" as="sourcePoint" />
            <mxPoint x="330" y="500" as="targetPoint" />
            <Array as="points" />
          </mxGeometry>
        </mxCell>
        <mxCell id="-FWnQ9TpVOZ-mp9vKElp-24" value="&lt;font style=&quot;font-size: 18px;&quot;&gt;End&lt;/font&gt;" style="edgeLabel;html=1;align=center;verticalAlign=middle;resizable=0;points=[];" vertex="1" connectable="0" parent="-FWnQ9TpVOZ-mp9vKElp-23">
          <mxGeometry x="0.0444" y="9" relative="1" as="geometry">
            <mxPoint y="-1" as="offset" />
          </mxGeometry>
        </mxCell>
        <mxCell id="-FWnQ9TpVOZ-mp9vKElp-25" value="" style="endArrow=classic;html=1;rounded=0;" edge="1" parent="1">
          <mxGeometry width="50" height="50" relative="1" as="geometry">
            <mxPoint x="160" y="127" as="sourcePoint" />
            <mxPoint x="340" y="127" as="targetPoint" />
          </mxGeometry>
        </mxCell>
        <mxCell id="-FWnQ9TpVOZ-mp9vKElp-26" value="&lt;font style=&quot;font-size: 18px;&quot;&gt;freelist&lt;/font&gt;" style="text;html=1;align=center;verticalAlign=middle;resizable=0;points=[];autosize=1;strokeColor=none;fillColor=none;" vertex="1" parent="1">
          <mxGeometry x="200" y="90" width="80" height="40" as="geometry" />
        </mxCell>
        <mxCell id="-FWnQ9TpVOZ-mp9vKElp-32" style="edgeStyle=orthogonalEdgeStyle;rounded=0;orthogonalLoop=1;jettySize=auto;html=1;exitX=0;exitY=0.75;exitDx=0;exitDy=0;entryX=0;entryY=0.25;entryDx=0;entryDy=0;" edge="1" parent="1">
          <mxGeometry relative="1" as="geometry">
            <mxPoint x="339.93" y="247" as="targetPoint" />
            <mxPoint x="339.93" y="210" as="sourcePoint" />
            <Array as="points">
              <mxPoint x="269.93" y="210" />
              <mxPoint x="269.93" y="248" />
              <mxPoint x="339.93" y="248" />
            </Array>
          </mxGeometry>
        </mxCell>
        <mxCell id="-FWnQ9TpVOZ-mp9vKElp-33" style="edgeStyle=orthogonalEdgeStyle;rounded=0;orthogonalLoop=1;jettySize=auto;html=1;exitX=0;exitY=0.75;exitDx=0;exitDy=0;entryX=0;entryY=0.25;entryDx=0;entryDy=0;" edge="1" parent="1">
          <mxGeometry relative="1" as="geometry">
            <mxPoint x="339.93" y="347" as="targetPoint" />
            <mxPoint x="339.93" y="310" as="sourcePoint" />
            <Array as="points">
              <mxPoint x="340" y="280" />
              <mxPoint x="270" y="280" />
              <mxPoint x="270" y="348" />
              <mxPoint x="340" y="348" />
            </Array>
          </mxGeometry>
        </mxCell>
        <mxCell id="-FWnQ9TpVOZ-mp9vKElp-35" style="edgeStyle=orthogonalEdgeStyle;rounded=0;orthogonalLoop=1;jettySize=auto;html=1;exitX=0;exitY=0.75;exitDx=0;exitDy=0;entryX=0;entryY=0.25;entryDx=0;entryDy=0;" edge="1" parent="1">
          <mxGeometry relative="1" as="geometry">
            <mxPoint x="340" y="446.93" as="targetPoint" />
            <mxPoint x="340" y="409.93" as="sourcePoint" />
            <Array as="points">
              <mxPoint x="340.07" y="379.93" />
              <mxPoint x="270.07" y="379.93" />
              <mxPoint x="270.07" y="447.93" />
              <mxPoint x="340.07" y="447.93" />
            </Array>
          </mxGeometry>
        </mxCell>
        <mxCell id="-FWnQ9TpVOZ-mp9vKElp-36" value="" style="endArrow=classic;html=1;rounded=0;" edge="1" parent="1">
          <mxGeometry width="50" height="50" relative="1" as="geometry">
            <mxPoint x="340" y="470" as="sourcePoint" />
            <mxPoint x="110" y="470" as="targetPoint" />
          </mxGeometry>
        </mxCell>
        <mxCell id="-FWnQ9TpVOZ-mp9vKElp-38" value="&lt;font style=&quot;font-size: 24px;&quot;&gt;NULL&lt;/font&gt;" style="ellipse;whiteSpace=wrap;html=1;aspect=fixed;" vertex="1" parent="1">
          <mxGeometry x="30" y="430" width="80" height="80" as="geometry" />
        </mxCell>
      </root>
    </mxGraphModel>
  </diagram>
</mxfile>
